<svg width="84" height="84" viewBox="0 0 84 84" fill="none" xmlns="http://www.w3.org/2000/svg">
<rect x="36.0624" width="67.1751" height="51" rx="25.5" transform="rotate(45 36.0624 0)" fill="url(#paint0_linear_9_2)"/>
<path d="M27.4012 46.5912C26.2012 46.5912 25.6012 46.2712 25.6012 45.6312V26.7312C25.6012 25.9312 26.0012 25.5312 26.8012 25.5312H33.1012C33.7612 25.5312 34.5012 25.6112 35.3212 25.7712C36.1412 25.9112 36.9212 26.2012 37.6612 26.6412C38.4212 27.0812 39.0412 27.7412 39.5212 28.6212C40.0012 29.5012 40.2412 30.6612 40.2412 32.1012C40.2412 33.2612 40.0612 34.2312 39.7012 35.0112C39.3412 35.7912 38.8712 36.4312 38.2912 36.9312C37.7312 37.4112 37.1312 37.7812 36.4912 38.0412C35.8712 38.2812 35.2812 38.4512 34.7212 38.5512C34.1612 38.6312 33.7212 38.6712 33.4012 38.6712H30.2212V45.6312C30.2212 46.2712 29.6212 46.5912 28.4212 46.5912H27.4012ZM30.2212 34.7112H32.8912C33.1712 34.7112 33.4612 34.6812 33.7612 34.6212C34.0812 34.5412 34.3712 34.4112 34.6312 34.2312C34.8912 34.0312 35.1012 33.7612 35.2612 33.4212C35.4212 33.0812 35.5012 32.6412 35.5012 32.1012C35.5012 31.3812 35.3612 30.8312 35.0812 30.4512C34.8012 30.0712 34.4612 29.8112 34.0612 29.6712C33.6612 29.5312 33.2712 29.4612 32.8912 29.4612H30.2212V34.7112Z" fill="black"/>
<path d="M45.0112 57.5312C44.2112 57.5312 43.8112 57.1312 43.8112 56.3312V37.7312C43.8112 36.9312 44.2112 36.5312 45.0112 36.5312H51.4312C53.4912 36.5312 55.2312 36.9412 56.6512 37.7612C58.0912 38.5612 59.1812 39.7412 59.9212 41.3012C60.6612 42.8612 61.0312 44.7712 61.0312 47.0312C61.0312 48.7312 60.8212 50.2312 60.4012 51.5312C59.9812 52.8312 59.3612 53.9312 58.5412 54.8312C57.7212 55.7112 56.7112 56.3812 55.5112 56.8412C54.3312 57.3012 52.9712 57.5312 51.4312 57.5312H45.0112ZM48.4612 53.6012H51.4312C52.5112 53.6012 53.4112 53.3512 54.1312 52.8512C54.8512 52.3512 55.3912 51.6112 55.7512 50.6312C56.1112 49.6512 56.2912 48.4512 56.2912 47.0312C56.2912 45.6112 56.1112 44.4112 55.7512 43.4312C55.3912 42.4512 54.8512 41.7112 54.1312 41.2112C53.4112 40.7112 52.5112 40.4612 51.4312 40.4612H48.4612V53.6012Z" fill="#00002C"/>
<defs>
<linearGradient id="paint0_linear_9_2" x1="72.4784" y1="-5.25915" x2="69.65" y2="51" gradientUnits="userSpaceOnUse">
<stop stop-color="#AA9606"/>
<stop offset="1" stop-color="#58D435"/>
</linearGradient>
</defs>
</svg>
