<svg width="49" height="38" viewBox="0 0 49 38"  xmlns="http://www.w3.org/2000/svg">
<path d="M41.034 3.81185C37.944 2.4183 34.6318 1.38829 31.1681 0.802589C31.1372 0.796667 31.1053 0.800484 31.0767 0.81351C31.0481 0.826536 31.0243 0.848129 31.0085 0.875296C30.5844 1.62054 30.1118 2.59199 29.7806 3.35945C26.107 2.81059 22.3723 2.81059 18.6988 3.35945C18.3299 2.5089 17.9139 1.67957 17.4527 0.875296C17.4371 0.847794 17.4134 0.825714 17.3849 0.812001C17.3564 0.798288 17.3244 0.793596 17.2931 0.79855C13.8315 1.38425 10.5193 2.41426 7.42719 3.80983C7.40059 3.82099 7.37804 3.84002 7.36256 3.86437C1.07744 13.1042 -0.645315 22.1159 0.200915 31.0144C0.20327 31.0362 0.210035 31.0573 0.220798 31.0764C0.231562 31.0955 0.246099 31.1122 0.263524 31.1255C3.93199 33.7963 8.02367 35.8309 12.3672 37.144C12.3975 37.1533 12.4299 37.1533 12.4602 37.1439C12.4904 37.1346 12.5172 37.1163 12.5369 37.0915C13.4716 35.8415 14.2998 34.5153 15.013 33.1269C15.0229 33.108 15.0286 33.0871 15.0297 33.0657C15.0308 33.0443 15.0273 33.0229 15.0195 33.003C15.0116 32.9831 14.9996 32.9651 14.9842 32.9503C14.9688 32.9354 14.9503 32.924 14.9302 32.9169C13.6255 32.4256 12.3613 31.8327 11.1494 31.1437C11.1276 31.1312 11.1093 31.1136 11.096 31.0923C11.0827 31.071 11.0749 31.0468 11.0733 31.0218C11.0717 30.9968 11.0764 30.9717 11.0868 30.9489C11.0973 30.9261 11.1132 30.9063 11.1332 30.8912C11.3877 30.7034 11.6422 30.5075 11.8845 30.3116C11.9064 30.2939 11.9326 30.2827 11.9604 30.2792C11.9883 30.2756 12.0165 30.2798 12.0421 30.2914C19.9732 33.854 28.5627 33.854 36.401 30.2914C36.4266 30.2791 36.4551 30.2744 36.4834 30.2776C36.5116 30.2808 36.5383 30.2919 36.5605 30.3095C36.8029 30.5075 37.0553 30.7034 37.3118 30.8912C37.332 30.906 37.3483 30.9256 37.359 30.9482C37.3698 30.9708 37.3749 30.9957 37.3736 31.0207C37.3725 31.0457 37.3651 31.07 37.3522 31.0915C37.3393 31.1129 37.3212 31.1309 37.2997 31.1437C36.092 31.8384 34.8357 32.4261 33.5169 32.9149C33.4967 32.9222 33.4782 32.9338 33.4628 32.9489C33.4474 32.9639 33.4353 32.9821 33.4275 33.0022C33.4197 33.0222 33.4162 33.0438 33.4173 33.0653C33.4185 33.0868 33.4242 33.1078 33.4341 33.1269C34.1612 34.5144 34.9933 35.8353 35.9082 37.0895C35.9272 37.1152 35.9537 37.1345 35.9841 37.1446C36.0144 37.1547 36.0472 37.1552 36.0778 37.146C40.4288 35.8366 44.5272 33.8011 48.1997 31.1255C48.2176 31.113 48.2327 31.0967 48.2438 31.0779C48.255 31.0591 48.262 31.0382 48.2643 31.0164C49.2742 20.7284 46.5719 11.7894 41.0966 3.8684C41.0832 3.84266 41.061 3.8226 41.034 3.81185ZM16.1985 25.5957C13.8113 25.5957 11.8421 23.4367 11.8421 20.789C11.8421 18.1392 13.7729 15.9822 16.1985 15.9822C18.6423 15.9822 20.5932 18.1574 20.5549 20.789C20.5549 23.4387 18.6241 25.5957 16.1985 25.5957ZM32.3051 25.5957C29.9159 25.5957 27.9488 23.4367 27.9488 20.789C27.9488 18.1392 29.8775 15.9822 32.3051 15.9822C34.7489 15.9822 36.6999 18.1574 36.6615 20.789C36.6615 23.4387 34.7509 25.5957 32.3051 25.5957Z" fill="black"/>
</svg>
