<svg width="42" height="41" viewBox="0 0 42 41"  xmlns="http://www.w3.org/2000/svg">
<path fill-rule="evenodd" clip-rule="evenodd" d="M20.9746 0C9.38612 0 0 9.38612 0 20.9746C0 30.2558 6.00397 38.0951 14.3414 40.8742C15.3901 41.0577 15.7834 40.4285 15.7834 39.8779C15.7834 39.3798 15.7572 37.728 15.7572 35.9714C10.4873 36.9415 9.12394 34.6867 8.70445 33.5069C8.46849 32.9039 7.44597 31.0424 6.55456 30.5442C5.82045 30.151 4.77172 29.1809 6.52834 29.1547C8.18008 29.1284 9.3599 30.6753 9.75318 31.3046C11.6409 34.477 14.656 33.5855 15.862 33.035C16.0456 31.6716 16.5961 30.754 17.1992 30.2296C12.5323 29.7052 7.65572 27.8962 7.65572 19.8734C7.65572 17.5924 8.46849 15.7047 9.80561 14.2365C9.59587 13.7121 8.86176 11.5622 10.0154 8.67823C10.0154 8.67823 11.772 8.12765 15.7834 10.8281C17.4613 10.3562 19.2442 10.1202 21.027 10.1202C22.8099 10.1202 24.5927 10.3562 26.2707 10.8281C30.282 8.10143 32.0387 8.67823 32.0387 8.67823C33.1923 11.5622 32.4582 13.7121 32.2484 14.2365C33.5855 15.7047 34.3983 17.5662 34.3983 19.8734C34.3983 27.9224 29.4955 29.7052 24.8287 30.2296C25.589 30.8851 26.2444 32.1435 26.2444 34.1099C26.2444 36.9153 26.2182 39.17 26.2182 39.8779C26.2182 40.4285 26.6115 41.084 27.6602 40.8742C31.824 39.4684 35.4421 36.7923 38.0053 33.2226C40.5686 29.6529 41.9479 25.3693 41.9492 20.9746C41.9492 9.38612 32.563 0 20.9746 0Z" fill="black"/>
</svg>
