<svg width="40" height="40" viewBox="0 0 40 40"  xmlns="http://www.w3.org/2000/svg">
<path fill-rule="evenodd" clip-rule="evenodd" d="M39.1525 19.5763C39.1525 30.3873 30.3873 39.1525 19.5763 39.1525C8.76528 39.1525 0 30.3873 0 19.5763C0 8.76528 8.76528 0 19.5763 0C30.3873 0 39.1525 8.76528 39.1525 19.5763ZM32.1181 18.0395C32.4346 18.4914 32.6141 19.0249 32.6336 19.5763C32.6422 20.1157 32.4978 20.6465 32.2172 21.1073C31.9365 21.5681 31.5312 21.94 31.048 22.1799C31.0708 22.467 31.0708 22.7542 31.048 23.0413C31.048 27.4264 25.9386 30.9892 19.635 30.9892C13.3314 30.9892 8.22203 27.4264 8.22203 23.0413C8.19999 22.7546 8.19999 22.4666 8.22203 22.1799C7.84873 22.0052 7.5177 21.7517 7.25169 21.4368C6.98567 21.122 6.79099 20.7533 6.68101 20.356C6.57104 19.9588 6.54839 19.5425 6.61461 19.1356C6.68083 18.7288 6.83436 18.3412 7.06464 17.9993C7.29493 17.6575 7.5965 17.3695 7.94864 17.1553C8.30077 16.9411 8.69512 16.8057 9.10457 16.7583C9.51402 16.711 9.92886 16.7529 10.3206 16.8811C10.7123 17.0094 11.0716 17.2209 11.3738 17.5012C13.6295 15.9713 16.2833 15.1344 19.0086 15.0933L20.4572 8.30034C20.4735 8.2217 20.5052 8.14707 20.5505 8.08077C20.5958 8.01448 20.6539 7.95784 20.7212 7.91414C20.7886 7.87044 20.864 7.84054 20.943 7.82619C21.022 7.81183 21.1031 7.8133 21.1815 7.83051L25.9777 8.78975C26.2119 8.38733 26.5819 8.08158 27.0213 7.92737C27.4606 7.77316 27.9405 7.78059 28.3749 7.94833C28.8092 8.11607 29.1696 8.43314 29.3912 8.84261C29.6129 9.25209 29.6813 9.72716 29.5842 10.1825C29.4872 10.6379 29.231 11.0438 28.8617 11.3273C28.4923 11.6109 28.034 11.7535 27.569 11.7296C27.104 11.7056 26.6628 11.5167 26.3245 11.1968C25.9862 10.8769 25.773 10.4468 25.7232 9.9839L21.5339 9.10297L20.2614 15.2108C22.9536 15.2685 25.5714 16.1048 27.7983 17.6186C28.0956 17.3328 28.4512 17.1147 28.8408 16.9794C29.2304 16.8441 29.6446 16.7947 30.0551 16.8347C30.4656 16.8747 30.8625 17.0031 31.2186 17.2111C31.5747 17.4191 31.8816 17.7017 32.1181 18.0395ZM13.3869 20.4458C13.244 20.6596 13.1446 20.8994 13.0944 21.1517C13.0442 21.4039 13.0442 21.6635 13.0944 21.9157C13.1956 22.4251 13.4951 22.8734 13.9269 23.162C14.3587 23.4506 14.8874 23.5558 15.3968 23.4545C15.649 23.4044 15.8889 23.3051 16.1028 23.1622C16.3166 23.0194 16.5002 22.8358 16.6431 22.622C16.9317 22.1902 17.0369 21.6615 16.9356 21.1521C16.8344 20.6427 16.5349 20.1944 16.1031 19.9058C15.6713 19.6172 15.1426 19.512 14.6332 19.6132C14.1238 19.7145 13.6755 20.014 13.3869 20.4458ZM19.5958 28.4247C21.3332 28.4965 23.0429 28.043 24.4312 26.9957C24.535 26.8944 24.5944 26.7561 24.5962 26.6111C24.5981 26.4661 24.5422 26.3263 24.441 26.2224C24.3908 26.171 24.3311 26.13 24.2651 26.1016C24.1991 26.0733 24.1282 26.0583 24.0564 26.0574C23.9114 26.0555 23.7716 26.1114 23.6677 26.2126C22.4796 27.0649 21.0363 27.4862 19.5763 27.4068C18.1181 27.4719 16.6814 27.0368 15.5044 26.1735C15.403 26.0902 15.2742 26.0477 15.1432 26.0541C15.0121 26.0606 14.8881 26.1155 14.7953 26.2083C14.7025 26.3011 14.6476 26.4251 14.6412 26.5561C14.6347 26.6872 14.6773 26.8159 14.7605 26.9174C16.1494 27.964 17.8582 28.4967 19.5958 28.4247ZM22.9907 23.2403C23.3137 23.4556 23.6726 23.6481 24.0592 23.6481C24.3247 23.6512 24.5881 23.6002 24.8333 23.4983C25.0784 23.3963 25.3003 23.2455 25.4853 23.055C25.6703 22.8645 25.8145 22.6383 25.9093 22.3903C26.004 22.1423 26.0473 21.8775 26.0364 21.6122C26.0363 21.2741 25.9486 20.9417 25.7818 20.6475C25.6151 20.3534 25.375 20.1074 25.0849 19.9336C24.7948 19.7598 24.4647 19.6641 24.1266 19.6559C23.7886 19.6476 23.4542 19.7271 23.1559 19.8865C22.8577 20.0459 22.6059 20.2798 22.425 20.5655C22.244 20.8512 22.1402 21.1789 22.1236 21.5166C22.1069 21.8543 22.178 22.1906 22.33 22.4927C22.482 22.7948 22.7096 23.0523 22.9907 23.2403Z" fill="black"/>
</svg>
